<mxfile host="app.diagrams.net" modified="2024-05-03T17:53:54.650Z" agent="Mozilla/5.0 (X11; Linux x86_64; rv:109.0) Gecko/20100101 Firefox/114.0" etag="6ZcQuCJw-dwDQyQqj5Di" version="24.2.3" type="device">
  <diagram name="PÃ¡gina-1" id="T80zSy7TvY3Y2N0Xdsnt">
    <mxGraphModel dx="956" dy="526" grid="1" gridSize="10" guides="1" tooltips="1" connect="1" arrows="1" fold="1" page="1" pageScale="1" pageWidth="827" pageHeight="1169" math="0" shadow="0">
      <root>
        <mxCell id="0" />
        <mxCell id="1" parent="0" />
        <mxCell id="B56831PR8yA9rPzfDuas-11" style="rounded=0;orthogonalLoop=1;jettySize=auto;html=1;exitX=0.5;exitY=1;exitDx=0;exitDy=0;entryX=0.5;entryY=0;entryDx=0;entryDy=0;dashed=1;" edge="1" parent="1" source="B56831PR8yA9rPzfDuas-1" target="B56831PR8yA9rPzfDuas-6">
          <mxGeometry relative="1" as="geometry" />
        </mxCell>
        <mxCell id="B56831PR8yA9rPzfDuas-1" value="Reloj : Reloj de sistema" style="rounded=0;whiteSpace=wrap;html=1;" vertex="1" parent="1">
          <mxGeometry x="120" y="80" width="80" height="40" as="geometry" />
        </mxCell>
        <mxCell id="B56831PR8yA9rPzfDuas-12" style="rounded=0;orthogonalLoop=1;jettySize=auto;html=1;exitX=0.5;exitY=1;exitDx=0;exitDy=0;entryX=0.5;entryY=0;entryDx=0;entryDy=0;dashed=1;" edge="1" parent="1" source="B56831PR8yA9rPzfDuas-2" target="B56831PR8yA9rPzfDuas-7">
          <mxGeometry relative="1" as="geometry" />
        </mxCell>
        <mxCell id="B56831PR8yA9rPzfDuas-2" value="Sol : Estrella" style="rounded=0;whiteSpace=wrap;html=1;" vertex="1" parent="1">
          <mxGeometry x="280" y="80" width="80" height="40" as="geometry" />
        </mxCell>
        <mxCell id="B56831PR8yA9rPzfDuas-16" style="edgeStyle=orthogonalEdgeStyle;rounded=0;orthogonalLoop=1;jettySize=auto;html=1;exitX=0.5;exitY=1;exitDx=0;exitDy=0;entryX=0.5;entryY=0;entryDx=0;entryDy=0;dashed=1;" edge="1" parent="1" source="B56831PR8yA9rPzfDuas-4" target="B56831PR8yA9rPzfDuas-13">
          <mxGeometry relative="1" as="geometry" />
        </mxCell>
        <mxCell id="B56831PR8yA9rPzfDuas-4" value="Mi reloj : Reloj" style="rounded=0;whiteSpace=wrap;html=1;" vertex="1" parent="1">
          <mxGeometry x="440" y="80" width="80" height="40" as="geometry" />
        </mxCell>
        <mxCell id="B56831PR8yA9rPzfDuas-18" style="rounded=0;orthogonalLoop=1;jettySize=auto;html=1;exitX=0.5;exitY=1;exitDx=0;exitDy=0;entryX=0.5;entryY=0;entryDx=0;entryDy=0;dashed=1;" edge="1" parent="1" source="B56831PR8yA9rPzfDuas-5" target="B56831PR8yA9rPzfDuas-17">
          <mxGeometry relative="1" as="geometry" />
        </mxCell>
        <mxCell id="B56831PR8yA9rPzfDuas-5" value="Persona : Pepico" style="rounded=0;whiteSpace=wrap;html=1;" vertex="1" parent="1">
          <mxGeometry x="600" y="80" width="80" height="40" as="geometry" />
        </mxCell>
        <mxCell id="B56831PR8yA9rPzfDuas-9" style="edgeStyle=orthogonalEdgeStyle;rounded=0;orthogonalLoop=1;jettySize=auto;html=1;exitX=1;exitY=0;exitDx=0;exitDy=0;entryX=0;entryY=0;entryDx=0;entryDy=0;" edge="1" parent="1" source="B56831PR8yA9rPzfDuas-6" target="B56831PR8yA9rPzfDuas-7">
          <mxGeometry relative="1" as="geometry">
            <Array as="points">
              <mxPoint x="240" y="160" />
              <mxPoint x="240" y="160" />
            </Array>
          </mxGeometry>
        </mxCell>
        <mxCell id="B56831PR8yA9rPzfDuas-33" style="rounded=0;orthogonalLoop=1;jettySize=auto;html=1;exitX=0.5;exitY=1;exitDx=0;exitDy=0;dashed=1;" edge="1" parent="1" source="B56831PR8yA9rPzfDuas-6" target="B56831PR8yA9rPzfDuas-28">
          <mxGeometry relative="1" as="geometry" />
        </mxCell>
        <mxCell id="B56831PR8yA9rPzfDuas-6" value="" style="rounded=0;whiteSpace=wrap;html=1;" vertex="1" parent="1">
          <mxGeometry x="150" y="160" width="20" height="160" as="geometry" />
        </mxCell>
        <mxCell id="B56831PR8yA9rPzfDuas-34" style="edgeStyle=orthogonalEdgeStyle;rounded=0;orthogonalLoop=1;jettySize=auto;html=1;exitX=0.5;exitY=1;exitDx=0;exitDy=0;dashed=1;" edge="1" parent="1" source="B56831PR8yA9rPzfDuas-7" target="B56831PR8yA9rPzfDuas-30">
          <mxGeometry relative="1" as="geometry" />
        </mxCell>
        <mxCell id="B56831PR8yA9rPzfDuas-7" value="" style="rounded=0;whiteSpace=wrap;html=1;fillColor=default;" vertex="1" parent="1">
          <mxGeometry x="310" y="160" width="20" height="160" as="geometry" />
        </mxCell>
        <mxCell id="B56831PR8yA9rPzfDuas-10" value="&lt;div style=&quot;font-size: 9px;&quot;&gt;Brilla( )&lt;/div&gt;" style="text;html=1;align=center;verticalAlign=middle;whiteSpace=wrap;rounded=0;" vertex="1" parent="1">
          <mxGeometry x="200" y="150" width="60" height="10" as="geometry" />
        </mxCell>
        <mxCell id="B56831PR8yA9rPzfDuas-35" style="edgeStyle=orthogonalEdgeStyle;rounded=0;orthogonalLoop=1;jettySize=auto;html=1;exitX=0.5;exitY=1;exitDx=0;exitDy=0;dashed=1;" edge="1" parent="1" source="B56831PR8yA9rPzfDuas-13" target="B56831PR8yA9rPzfDuas-31">
          <mxGeometry relative="1" as="geometry" />
        </mxCell>
        <mxCell id="B56831PR8yA9rPzfDuas-13" value="" style="rounded=0;whiteSpace=wrap;html=1;fillColor=default;" vertex="1" parent="1">
          <mxGeometry x="470" y="160" width="20" height="160" as="geometry" />
        </mxCell>
        <mxCell id="B56831PR8yA9rPzfDuas-15" value="&lt;font style=&quot;font-size: 9px;&quot;&gt;Suena&lt;/font&gt;( )" style="text;html=1;align=center;verticalAlign=middle;whiteSpace=wrap;rounded=0;" vertex="1" parent="1">
          <mxGeometry x="380" y="160" width="40" height="10" as="geometry" />
        </mxCell>
        <mxCell id="B56831PR8yA9rPzfDuas-36" style="edgeStyle=orthogonalEdgeStyle;rounded=0;orthogonalLoop=1;jettySize=auto;html=1;exitX=0.5;exitY=1;exitDx=0;exitDy=0;dashed=1;" edge="1" parent="1" source="B56831PR8yA9rPzfDuas-17" target="B56831PR8yA9rPzfDuas-32">
          <mxGeometry relative="1" as="geometry" />
        </mxCell>
        <mxCell id="B56831PR8yA9rPzfDuas-17" value="" style="rounded=0;whiteSpace=wrap;html=1;fillColor=default;" vertex="1" parent="1">
          <mxGeometry x="630" y="160" width="20" height="160" as="geometry" />
        </mxCell>
        <mxCell id="B56831PR8yA9rPzfDuas-19" style="edgeStyle=orthogonalEdgeStyle;rounded=0;orthogonalLoop=1;jettySize=auto;html=1;exitX=1;exitY=0.25;exitDx=0;exitDy=0;entryX=0;entryY=0.25;entryDx=0;entryDy=0;" edge="1" parent="1">
          <mxGeometry relative="1" as="geometry">
            <mxPoint x="330" y="170" as="sourcePoint" />
            <mxPoint x="470" y="170" as="targetPoint" />
          </mxGeometry>
        </mxCell>
        <mxCell id="B56831PR8yA9rPzfDuas-20" style="edgeStyle=orthogonalEdgeStyle;rounded=0;orthogonalLoop=1;jettySize=auto;html=1;exitX=1;exitY=0.25;exitDx=0;exitDy=0;entryX=0;entryY=0.25;entryDx=0;entryDy=0;" edge="1" parent="1">
          <mxGeometry relative="1" as="geometry">
            <mxPoint x="490" y="190" as="sourcePoint" />
            <mxPoint x="630" y="190" as="targetPoint" />
          </mxGeometry>
        </mxCell>
        <mxCell id="B56831PR8yA9rPzfDuas-21" value="&lt;font style=&quot;font-size: 9px;&quot;&gt;Despierta&lt;/font&gt;( )" style="text;html=1;align=center;verticalAlign=middle;whiteSpace=wrap;rounded=0;" vertex="1" parent="1">
          <mxGeometry x="520" y="180" width="60" height="10" as="geometry" />
        </mxCell>
        <mxCell id="B56831PR8yA9rPzfDuas-22" style="rounded=0;orthogonalLoop=1;jettySize=auto;html=1;exitX=1;exitY=0.25;exitDx=0;exitDy=0;entryX=0;entryY=0.25;entryDx=0;entryDy=0;startArrow=classic;startFill=1;endArrow=none;endFill=0;" edge="1" parent="1">
          <mxGeometry relative="1" as="geometry">
            <mxPoint x="490" y="220" as="sourcePoint" />
            <mxPoint x="630" y="220" as="targetPoint" />
          </mxGeometry>
        </mxCell>
        <mxCell id="B56831PR8yA9rPzfDuas-23" value="&lt;font style=&quot;font-size: 9px;&quot;&gt;Apaga&lt;/font&gt;( )" style="text;html=1;align=center;verticalAlign=middle;whiteSpace=wrap;rounded=0;" vertex="1" parent="1">
          <mxGeometry x="540" y="210" width="40" height="10" as="geometry" />
        </mxCell>
        <mxCell id="B56831PR8yA9rPzfDuas-24" style="edgeStyle=orthogonalEdgeStyle;rounded=0;orthogonalLoop=1;jettySize=auto;html=1;exitX=1;exitY=0.5;exitDx=0;exitDy=0;entryX=1;entryY=0.75;entryDx=0;entryDy=0;" edge="1" parent="1" source="B56831PR8yA9rPzfDuas-17" target="B56831PR8yA9rPzfDuas-17">
          <mxGeometry relative="1" as="geometry" />
        </mxCell>
        <mxCell id="B56831PR8yA9rPzfDuas-25" value="&lt;font style=&quot;font-size: 9px;&quot;&gt;Sigue durmiendo&lt;/font&gt;" style="text;html=1;align=center;verticalAlign=middle;whiteSpace=wrap;rounded=0;" vertex="1" parent="1">
          <mxGeometry x="680" y="250" width="40" height="10" as="geometry" />
        </mxCell>
        <mxCell id="B56831PR8yA9rPzfDuas-28" value="" style="shape=umlDestroy;whiteSpace=wrap;html=1;strokeWidth=3;targetShapes=umlLifeline;" vertex="1" parent="1">
          <mxGeometry x="150" y="360" width="20" height="20" as="geometry" />
        </mxCell>
        <mxCell id="B56831PR8yA9rPzfDuas-30" value="" style="shape=umlDestroy;whiteSpace=wrap;html=1;strokeWidth=3;targetShapes=umlLifeline;" vertex="1" parent="1">
          <mxGeometry x="310" y="360" width="20" height="20" as="geometry" />
        </mxCell>
        <mxCell id="B56831PR8yA9rPzfDuas-31" value="" style="shape=umlDestroy;whiteSpace=wrap;html=1;strokeWidth=3;targetShapes=umlLifeline;" vertex="1" parent="1">
          <mxGeometry x="470" y="360" width="20" height="20" as="geometry" />
        </mxCell>
        <mxCell id="B56831PR8yA9rPzfDuas-32" value="" style="shape=umlDestroy;whiteSpace=wrap;html=1;strokeWidth=3;targetShapes=umlLifeline;" vertex="1" parent="1">
          <mxGeometry x="630" y="360" width="20" height="20" as="geometry" />
        </mxCell>
      </root>
    </mxGraphModel>
  </diagram>
</mxfile>
